name Walk4.mot
datacolumns 19
datarows 30
range 2.75500000 2.78400000
endheader

                time	   L_ground_force_vx	   L_ground_force_vy	   L_ground_force_vz	   L_ground_force_px	   L_ground_force_py	   L_ground_force_pz	   R_ground_force_vx	   R_ground_force_vy	   R_ground_force_vz	   R_ground_force_px	   R_ground_force_py	   R_ground_force_pz	   L_ground_torque_x	   L_ground_torque_y	   L_ground_torque_z	   R_ground_torque_x	   R_ground_torque_y	   R_ground_torque_z	
          2.75500000	          3.44159438	         44.17281996	         -6.02926039	         -0.16514985	          0.00000000	         -0.03124609	         -0.00000000	          0.00000000	          0.00000000	          0.00000000	          0.00000000	          0.00000000	          0.00000000	          0.01329498	          0.00000000	          0.00000000	          0.00000000	          0.00000000	
          2.75600000	          3.51051165	         48.06142158	         -6.40585396	         -0.17465225	          0.00000000	         -0.03308595	         -0.00000000	          0.00000000	          0.00000000	          0.00000000	          0.00000000	          0.00000000	          0.00000000	          0.01565216	          0.00000000	          0.00000000	          0.00000000	          0.00000000	
          2.75700000	          3.57133496	         52.11288233	         -6.79098690	         -0.18431636	          0.00000000	         -0.03496013	         -0.00000000	          0.00000000	          0.00000000	          0.00000000	          0.00000000	          0.00000000	          0.00000000	          0.01816375	          0.00000000	          0.00000000	          0.00000000	          0.00000000	
          2.75800000	          3.62306099	         56.32560374	         -7.18386217	         -0.19411730	          0.00000000	         -0.03686409	         -0.00000000	          0.00000000	          0.00000000	          0.00000000	          0.00000000	          0.00000000	          0.00000000	          0.02083371	          0.00000000	          0.00000000	          0.00000000	          0.00000000	
          2.75900000	          3.66463074	         60.69717281	         -7.58357668	         -0.20402730	          0.00000000	         -0.03879274	         -0.00000000	          0.00000000	          0.00000000	          0.00000000	          0.00000000	          0.00000000	          0.00000000	          0.02366573	          0.00000000	          0.00000000	          0.00000000	          0.00000000	
          2.76000000	          3.69492878	         65.22429628	         -7.98911521	         -0.21401558	          0.00000000	         -0.04074038	         -0.00000000	          0.00000000	          0.00000000	          0.00000000	          0.00000000	          0.00000000	          0.00000000	          0.02666319	          0.00000000	          0.00000000	          0.00000000	          0.00000000	
          2.76100000	          3.71278254	         69.90273243	         -8.39934409	         -0.22404815	          0.00000000	         -0.04270076	         -0.00000000	          0.00000000	          0.00000000	          0.00000000	          0.00000000	          0.00000000	          0.00000000	          0.02982906	          0.00000000	          0.00000000	          0.00000000	          0.00000000	
          2.76200000	          3.71695845	         74.72723417	         -8.81300807	         -0.23408815	          0.00000000	         -0.04466704	         -0.00000000	          0.00000000	          0.00000000	          0.00000000	          0.00000000	          0.00000000	          0.00000000	          0.03316595	          0.00000000	          0.00000000	          0.00000000	          0.00000000	
          2.76300000	          3.70614670	         79.69154008	         -9.22873767	         -0.24409742	          0.00000000	         -0.04663211	         -0.00000000	          0.00000000	          0.00000000	          0.00000000	          0.00000000	          0.00000000	          0.00000000	          0.03667603	          0.00000000	          0.00000000	          0.00000000	          0.00000000	
          2.76400000	          3.67893521	         84.78842997	         -9.64506809	         -0.25403905	          0.00000000	         -0.04858906	         -0.00000000	          0.00000000	          0.00000000	          0.00000000	          0.00000000	          0.00000000	          0.00000000	          0.04036104	          0.00000000	          0.00000000	          0.00000000	          0.00000000	
          2.76500000	          3.63378559	         90.00981821	        -10.06046010	         -0.26387900	          0.00000000	         -0.05053146	         -0.00000000	          0.00000000	          0.00000000	          0.00000000	          0.00000000	          0.00000000	          0.00000000	          0.04422214	          0.00000000	          0.00000000	          0.00000000	          0.00000000	
          2.76600000	          3.56901867	         95.34686650	        -10.47331692	         -0.27358641	          0.00000000	         -0.05245352	         -0.00000000	          0.00000000	          0.00000000	          0.00000000	          0.00000000	          0.00000000	          0.00000000	          0.04825963	          0.00000000	          0.00000000	          0.00000000	          0.00000000	
          2.76700000	          3.48280762	        100.79012493	        -10.88199945	         -0.28313346	          0.00000000	         -0.05434998	         -0.00000000	          0.00000000	          0.00000000	          0.00000000	          0.00000000	          0.00000000	          0.00000000	          0.05247266	          0.00000000	          0.00000000	          0.00000000	          0.00000000	
          2.76800000	          3.37317687	        106.32970574	        -11.28484144	         -0.29249520	          0.00000000	         -0.05621618	         -0.00000000	          0.00000000	          0.00000000	          0.00000000	          0.00000000	          0.00000000	          0.00000000	          0.05685898	          0.00000000	          0.00000000	          0.00000000	          0.00000000	
          2.76900000	          3.23800776	        111.95548264	        -11.68016436	         -0.30164944	          0.00000000	         -0.05804799	         -0.00000000	          0.00000000	          0.00000000	          0.00000000	          0.00000000	          0.00000000	          0.00000000	          0.06141475	          0.00000000	          0.00000000	          0.00000000	          0.00000000	
          2.77000000	          3.07505188	        117.65730303	        -12.06629068	         -0.31057655	          0.00000000	         -0.05984180	         -0.00000000	          0.00000000	          0.00000000	          0.00000000	          0.00000000	          0.00000000	          0.00000000	          0.06613430	          0.00000000	          0.00000000	          0.00000000	          0.00000000	
          2.77100000	          2.88195277	        123.42519679	        -12.44155447	         -0.31925935	          0.00000000	         -0.06159448	         -0.00000000	          0.00000000	          0.00000000	          0.00000000	          0.00000000	          0.00000000	          0.00000000	          0.07101003	          0.00000000	          0.00000000	          0.00000000	          0.00000000	
          2.77200000	          2.65627617	        129.24956506	        -12.80430819	         -0.32768295	          0.00000000	         -0.06330337	         -0.00000000	          0.00000000	          0.00000000	          0.00000000	          0.00000000	          0.00000000	          0.00000000	          0.07603228	          0.00000000	          0.00000000	          0.00000000	          0.00000000	
          2.77300000	          2.39554730	        135.12133622	        -13.15292574	         -0.33583463	          0.00000000	         -0.06496622	         -0.00000000	          0.00000000	          0.00000000	          0.00000000	          0.00000000	          0.00000000	          0.00000000	          0.08118930	          0.00000000	          0.00000000	          0.00000000	          0.00000000	
          2.77400000	          2.09729265	        141.03208237	        -13.48580254	         -0.34370367	          0.00000000	         -0.06658118	         -0.00000000	          0.00000000	          0.00000000	          0.00000000	          0.00000000	          0.00000000	          0.00000000	          0.08646734	          0.00000000	          0.00000000	          0.00000000	          0.00000000	
          2.77500000	          1.75908322	        146.97409527	        -13.80135429	         -0.35128127	          0.00000000	         -0.06814680	         -0.00000000	          0.00000000	          0.00000000	          0.00000000	          0.00000000	          0.00000000	          0.00000000	          0.09185085	          0.00000000	          0.00000000	          0.00000000	          0.00000000	
          2.77600000	          1.37857631	        152.94042424	        -14.09801607	         -0.35856040	          0.00000000	         -0.06966195	         -0.00000000	          0.00000000	          0.00000000	          0.00000000	          0.00000000	          0.00000000	          0.00000000	          0.09732275	          0.00000000	          0.00000000	          0.00000000	          0.00000000	
          2.77700000	          0.95355377	        158.92488024	        -14.37424283	         -0.36553566	          0.00000000	         -0.07112584	         -0.00000000	          0.00000000	          0.00000000	          0.00000000	          0.00000000	          0.00000000	          0.00000000	          0.10286459	          0.00000000	          0.00000000	          0.00000000	          0.00000000	
          2.77800000	          0.48195517	        164.92201038	        -14.62851197	         -0.37220321	          0.00000000	         -0.07253795	         -0.00000000	          0.00000000	          0.00000000	          0.00000000	          0.00000000	          0.00000000	          0.00000000	          0.10845669	          0.00000000	          0.00000000	          0.00000000	          0.00000000	
          2.77900000	         -0.03809466	        170.92704744	        -14.85932753	         -0.37856061	          0.00000000	         -0.07389806	         -0.00000000	          0.00000000	          0.00000000	          0.00000000	          0.00000000	          0.00000000	          0.00000000	          0.11407796	          0.00000000	          0.00000000	          0.00000000	          0.00000000	
          2.78000000	         -0.60826386	        176.93583955	        -15.06522569	         -0.38460674	          0.00000000	         -0.07520616	          0.00000000	          0.00000000	          0.00000000	          0.00000000	          0.00000000	          0.00000000	          0.00000000	          0.11970564	          0.00000000	          0.00000000	          0.00000000	          0.00000000	
          2.78100000	         -1.22999709	        182.94476575	        -15.24478083	         -0.39034171	          0.00000000	         -0.07646247	          0.00000000	          0.00000000	          0.00000000	         -0.00000000	          0.00000000	         -0.00000000	          0.00000000	          0.12531482	          0.00000000	          0.00000000	          0.00000000	          0.00000000	
          2.78200000	         -1.90450349	        188.95064355	        -15.39661174	         -0.39576673	          0.00000000	         -0.07766741	          0.00000000	          0.00000000	          0.00000000	         -0.00000000	          0.00000000	         -0.00000000	          0.00000000	          0.13087807	          0.00000000	          0.00000000	          0.00000000	          0.00000000	
          2.78300000	         -2.63274787	        194.95063489	        -15.51938774	         -0.40088404	          0.00000000	         -0.07882159	          0.00000000	          0.00000000	         -0.00000000	         -0.00000000	          0.00000000	         -0.00000000	          0.00000000	          0.13636504	          0.00000000	          0.00000000	          0.00000000	          0.00000000	
          2.78400000	         -3.41544397	        200.94215587	        -15.61183469	         -0.40569681	          0.00000000	         -0.07992577	          0.00000000	          0.00000000	         -0.00000000	         -0.00000000	          0.00000000	         -0.00000000	          0.00000000	          0.14174242	          0.00000000	          0.00000000	          0.00000000	          0.00000000	
